<svg width="135" height="108" viewBox="0 0 135 108" fill="none" xmlns="http://www.w3.org/2000/svg">
<path d="M32.1434 58.3494C27.7982 58.4089 19.9648 57.3851 23.3934 52.8137C27.6791 47.0994 28.9291 47.8137 29.4649 48.7066C30.0006 49.5994 28.0363 53.528 23.2149 52.6351C19.3577 51.9208 19.703 48.0518 20.3577 46.2065" stroke="#FF816B" stroke-width="3"/>
<path d="M87.4999 101.921C88.0713 102.492 76.5475 94.5397 70.7142 90.4921C69.7142 88.9207 81.488 88.7659 87.4999 88.885C86.6427 89.885 91.4285 98.9445 93.9285 103.349L90.357 100.492C89.1666 100.73 86.9285 101.349 87.4999 101.921Z" fill="#F4B397"/>
<path d="M84.1075 90.3572L71.0718 90.7143C71.3099 90.8929 71.9646 91.3929 72.6789 91.9643C73.3932 92.5357 80.5956 91.131 84.1075 90.3572Z" fill="#FA9871"/>
<path d="M20.5356 69.8511C23.9642 68.5654 33.5118 72.5296 37.8571 74.6725C35.8928 70.5058 31.6785 61.9225 30.5356 60.9225C29.3928 59.9225 19.2261 62.7677 14.2856 64.3154L18.3928 66.8154L20.5356 69.8511Z" fill="#FFB494"/>
<path d="M30.3569 60.7143L35.292 73.3162C34.4323 73.0722 32.4646 72.3881 31.4715 71.6037C30.4784 70.8193 29.4644 63.0357 30.3569 60.7143Z" fill="#FC9172"/>
<path d="M60.8924 3.70632C67.3212 -0.400831 84.4641 6.38487 89.2853 8.52775C96.4284 11.9206 102.286 13.9206 110 23.3492C117.714 32.7778 109.643 49.7778 104.643 57.0992L119.643 56.2063C118.214 56.3492 115.833 58.8254 115.714 59.5992L118.214 61.3849C116.5 65.242 105.595 67.2778 100.357 67.8135C99.7855 74.6706 92.7264 87.1082 86.2498 89.5992C69.9998 95.8492 50.1783 82.0992 36.0711 73.5278C24.7853 66.6706 32.6781 47.5754 38.0353 38.8849C33.321 38.0278 32.6187 27.2182 32.8568 21.9206H36.0711L37.8569 16.9206C37.4284 22.2063 41.7853 27.6349 43.9281 29.0635C47.2614 21.3849 55.9434 6.86809 60.8924 3.70632Z" fill="#FFB699"/>
<path d="M64.6427 0.134954C62.4999 1.42067 53.8689 3.28972 49.8213 4.06352C48.2499 5.06353 48.75 9.77781 50.8928 14.9564C54.4643 16.2064 63.3927 17.5278 66.2499 14.9564C69.8213 11.7421 67.3213 -1.47219 64.6427 0.134954Z" fill="#FF8B6F"/>
<path d="M119.464 34.7778C117.671 33.0369 114.868 25.9583 113.08 22.2451C111.71 20.9831 106.597 24.2342 102.142 27.635C101.851 31.4077 103.553 38.8189 106.771 40.9199C110.795 43.5462 121.705 36.9539 119.464 34.7778Z" fill="#FF8B6F"/>
<path d="M58.0361 24.4207C61.0718 21.0874 66.929 17.0993 66.0718 27.8136" stroke="#511D08" stroke-width="3"/>
<path d="M97.3267 45.2347C98.8577 40.9941 99.6509 33.9527 90.5754 39.7117" stroke="#57230E" stroke-width="3"/>
<path d="M87.6787 41.9207C87.6787 47.2463 83.393 51.9207 75.0001 49.2421C63.5716 44.5993 62.6787 41.532 62.6787 36.2064C62.6787 30.8808 68.5716 28.885 75.7144 29.5993C82.3221 29.5993 87.6787 36.5951 87.6787 41.9207Z" fill="#FC734F"/>
<circle cx="71.2501" cy="37.4564" r="3.57143" fill="#CF2B08"/>
<circle cx="79.9999" cy="42.6349" r="1.96429" fill="#CD2800"/>
<ellipse cx="67.5" cy="96.0714" rx="67.5" ry="11.0714" fill="#FEBBC1" fill-opacity="0.37"/>
<path d="M31.0101 18.7285C27.1112 21.6245 25.3377 24.6816 24.9383 25.8482L32.4158 29.9672C32.8572 27.8141 34.475 23.1179 37.4152 21.558C40.3554 19.998 42.1768 16.3373 42.72 14.7019L35.5911 13.0934C35.6886 13.7651 34.909 15.8325 31.0101 18.7285Z" fill="#BDE376"/>
<path d="M30.9532 19.3885C27.4215 21.9216 25.7874 24.5584 25.4119 25.5602L32.0314 28.9561C32.4602 27.1119 33.8566 22.9614 36.51 21.5836C39.1633 20.2059 41.5109 16.4033 42.0225 14.9993L35.8013 13.5361C35.8778 14.1077 34.4848 16.8555 30.9532 19.3885Z" fill="#6CA538"/>
<path d="M31.1708 19.4933C27.818 21.8954 26.2658 24.3948 25.9089 25.3443L31.8358 28.2796C32.2437 26.5318 33.7493 22.6875 36.268 21.3805C38.7867 20.0735 41.1266 16.4704 41.6128 15.1397L36.026 13.8586C36.0983 14.4002 34.5235 17.0911 31.1708 19.4933Z" fill="#BDE376"/>
<path d="M35.2003 18.7743C36.4884 19.3606 36.9104 20.5878 36.0651 21.6219C35.4551 22.5432 33.2851 22.7051 31.947 21.9514C30.8124 21.3123 30.2573 20.333 31.2548 19.2732C32.0506 18.4278 34.1794 18.0983 35.2003 18.7743Z" fill="#6DA538"/>
<ellipse cx="30.1732" cy="24.2768" rx="0.486663" ry="0.59481" transform="rotate(-18.9759 30.1732 24.2768)" fill="#6CA638"/>
<ellipse cx="37.6897" cy="16.203" rx="0.486663" ry="0.59481" transform="rotate(-65.2575 37.6897 16.203)" fill="#6DA537"/>
</svg>
