<svg width="154" height="123" viewBox="0 0 154 123" fill="none" xmlns="http://www.w3.org/2000/svg">
<path d="M36.6671 66.5613C31.7103 66.6292 22.7745 65.4613 26.6856 60.2465C31.5745 53.728 33.0005 54.5428 33.6116 55.5613C34.2227 56.5799 31.982 61.0613 26.482 60.0428C22.082 59.228 22.4758 54.8144 23.2227 52.7095" stroke="#FF816B" stroke-width="3"/>
<path d="M99.8146 116.265C100.466 116.917 87.3208 107.845 80.6664 103.228C79.5257 101.435 92.9566 101.259 99.8146 101.395C98.8368 102.535 104.296 112.87 107.148 117.895L103.074 114.635C101.716 114.907 99.1627 115.613 99.8146 116.265Z" fill="#F4B397"/>
<path d="M95.9446 103.074L81.0742 103.481C81.3458 103.685 82.0927 104.255 82.9076 104.907C83.7224 105.559 91.9384 103.957 95.9446 103.074Z" fill="#FA9871"/>
<path d="M23.426 79.6819C27.3371 78.2152 38.2285 82.7375 43.1853 85.1819C40.9445 80.4288 36.1371 70.6375 34.8334 69.4967C33.5297 68.356 21.9322 71.6017 16.2964 73.3671L20.9816 76.2189L23.426 79.6819Z" fill="#FFB494"/>
<path d="M34.6294 69.2591L40.259 83.6347C39.2783 83.3564 37.0337 82.576 35.9008 81.6812C34.7679 80.7863 33.6113 71.9073 34.6294 69.2591Z" fill="#FC9172"/>
<path d="M69.4622 4.22793C76.7958 -0.457268 96.3514 7.28346 101.851 9.72793C110 13.5983 116.681 15.8798 125.481 26.6353C134.281 37.3909 125.074 56.7835 119.37 65.1353L136.481 64.1168C134.851 64.2798 132.135 67.1045 132 67.9872L134.851 70.0242C132.896 74.4242 120.456 76.7465 114.481 77.3576C113.829 85.1798 105.777 99.3679 98.3884 102.209C79.8514 109.339 57.2402 93.6539 41.1475 83.8761C28.2734 76.0539 37.277 54.2711 43.3882 44.3576C38.0104 43.3798 37.2092 31.0489 37.4809 25.0057H41.1475L43.1847 19.302C42.6958 25.3316 47.6659 31.5242 50.1104 33.1539C53.9128 24.3946 63.8167 7.83469 69.4622 4.22793Z" fill="#FFB699"/>
<path d="M73.7404 0.153947C71.2959 1.62061 61.4502 3.75271 56.833 4.63543C55.0404 5.77617 55.6108 11.1539 58.0552 17.0614C62.1294 18.4873 72.3144 19.9947 75.5737 17.0614C79.6478 13.3947 76.7959 -1.67939 73.7404 0.153947Z" fill="#FF8B6F"/>
<path d="M136.278 39.6723C134.233 37.6865 131.034 29.6116 128.996 25.3758C127.433 23.9362 121.6 27.6449 116.518 31.5242C116.186 35.8279 118.127 44.2822 121.799 46.6789C126.388 49.6748 138.834 42.1547 136.278 39.6723Z" fill="#FF8B6F"/>
<path d="M66.2041 27.8578C69.6671 24.0553 76.3485 19.5059 75.3708 31.7281" stroke="#511D08" stroke-width="3"/>
<path d="M111.024 51.6011C112.771 46.7637 113.676 38.7312 103.323 45.3008" stroke="#57230E" stroke-width="3"/>
<path d="M100.019 47.8208C100.019 53.8959 95.1296 59.2282 85.5556 56.1726C72.5185 50.8763 71.5 47.3774 71.5 41.3022C71.5 35.2271 78.2222 32.9504 86.3704 33.7652C93.908 33.7652 100.019 41.7456 100.019 47.8208Z" fill="#FC734F"/>
<circle cx="81.2777" cy="42.7281" r="4.07407" fill="#CF2B08"/>
<circle cx="91.2593" cy="48.6355" r="2.24074" fill="#CD2800"/>
<ellipse cx="77" cy="109.593" rx="77" ry="12.6296" fill="#FEBBC1" fill-opacity="0.37"/>
<path d="M35.3743 21.3644C30.9267 24.6679 28.9036 28.1554 28.448 29.4862L36.9779 34.1849C37.4814 31.7287 39.3269 26.3716 42.6809 24.5921C46.035 22.8126 48.1127 18.6367 48.7323 16.7711L40.6 14.9362C40.7113 15.7024 39.822 18.0608 35.3743 21.3644Z" fill="#BDE376"/>
<path d="M35.3093 22.1173C31.2806 25.0069 29.4165 28.0148 28.9881 29.1576L36.5393 33.0314C37.0284 30.9277 38.6214 26.1931 41.6481 24.6214C44.6749 23.0497 47.353 18.712 47.9365 17.1103L40.8397 15.4412C40.927 16.0932 39.338 19.2278 35.3093 22.1173Z" fill="#6CA538"/>
<path d="M35.5576 22.2368C31.733 24.977 29.9624 27.8282 29.5552 28.9113L36.3162 32.2598C36.7816 30.266 38.4991 25.8806 41.3723 24.3897C44.2455 22.8988 46.9146 18.7886 47.4693 17.2706L41.0962 15.8092C41.1787 16.427 39.3823 19.4966 35.5576 22.2368Z" fill="#BDE376"/>
<path d="M40.1546 21.4167C41.624 22.0856 42.1054 23.4855 41.1412 24.6651C40.4453 25.7161 37.9699 25.9007 36.4435 25.041C35.1492 24.312 34.516 23.1948 35.6539 21.9859C36.5616 21.0215 38.99 20.6456 40.1546 21.4167Z" fill="#6DA538"/>
<ellipse cx="34.4199" cy="27.6936" rx="0.555156" ry="0.678524" transform="rotate(-18.9759 34.4199 27.6936)" fill="#6CA638"/>
<ellipse cx="42.9941" cy="18.4834" rx="0.555156" ry="0.678524" transform="rotate(-65.2575 42.9941 18.4834)" fill="#6DA537"/>
</svg>
