<svg width="26" height="29" viewBox="0 0 26 29" fill="none" xmlns="http://www.w3.org/2000/svg">
<path d="M0.496218 14.262C0.64521 14.3366 0.812012 14.3681 0.977943 14.3532C1.14387 14.3383 1.30238 14.2776 1.43571 14.1777L4.4866 11.8895L7.17857 13.9085V27.8169C7.18224 27.9777 7.22854 28.1346 7.31273 28.2716C7.39692 28.4086 7.51598 28.5208 7.65773 28.5967C7.80029 28.6708 7.95963 28.7067 8.12019 28.7009C8.28076 28.6951 8.43708 28.6477 8.5739 28.5635L10.7678 27.0991L12.9618 28.5626C13.1093 28.661 13.2825 28.7135 13.4598 28.7135C13.6371 28.7135 13.8104 28.661 13.9578 28.5626L16.1518 27.0991L18.3457 28.5626C18.49 28.6588 18.6592 28.7111 18.8326 28.7131C19.006 28.7152 19.1763 28.667 19.3229 28.5743L21.5357 27.1736L23.7431 28.5743C23.8705 28.6524 24.0151 28.6979 24.1642 28.707C24.3133 28.7161 24.4624 28.6884 24.5983 28.6263C24.7522 28.5532 24.8829 28.4388 24.9759 28.296C25.0688 28.1531 25.1204 27.9873 25.125 27.8169V4.4866C25.1236 3.29712 24.6504 2.15676 23.8093 1.31567C22.9682 0.474577 21.8279 0.00142482 20.6384 0L4.4866 0C3.29712 0.00142482 2.15676 0.474577 1.31567 1.31567C0.474577 2.15676 0.00142482 3.29712 0 4.4866V13.4598C8.89681e-05 13.6264 0.0465558 13.7897 0.134196 13.9314C0.221837 14.0731 0.347191 14.1875 0.496218 14.262ZM23.3303 4.4866V26.1847L22.0211 25.3547C21.8775 25.2638 21.7111 25.2155 21.5411 25.2155C21.3711 25.2155 21.2046 25.2638 21.061 25.3547L18.8572 26.7473L16.6498 25.2766C16.5023 25.1782 16.329 25.1257 16.1518 25.1257C15.9745 25.1257 15.8012 25.1782 15.6538 25.2766L13.4598 26.7402L11.2659 25.2775C11.1184 25.1791 10.9451 25.1266 10.7678 25.1266C10.5906 25.1266 10.4173 25.1791 10.2698 25.2775L8.97321 26.1398V4.4866C8.96991 3.51259 8.64641 2.56669 8.05256 1.79464H20.6384C21.3523 1.79464 22.037 2.07826 22.5419 2.5831C23.0467 3.08794 23.3303 3.77265 23.3303 4.4866ZM1.79464 4.4866C1.79464 3.77265 2.07826 3.08794 2.5831 2.5831C3.08794 2.07826 3.77265 1.79464 4.4866 1.79464C5.20056 1.79464 5.88527 2.07826 6.39011 2.5831C6.89495 3.08794 7.17857 3.77265 7.17857 4.4866V11.6652L5.025 10.05C4.86807 9.93736 4.67977 9.87678 4.4866 9.87678C4.29344 9.87678 4.10514 9.93736 3.94821 10.05L1.79464 11.6652V4.4866Z" fill="#A0C4FF"/>
<path d="M11.6654 17.9464H20.6386C20.8766 17.9464 21.1048 17.8518 21.2731 17.6836C21.4414 17.5153 21.5359 17.287 21.5359 17.0491C21.5359 16.8111 21.4414 16.5828 21.2731 16.4146C21.1048 16.2463 20.8766 16.1517 20.6386 16.1517H11.6654C11.4274 16.1517 11.1992 16.2463 11.0309 16.4146C10.8626 16.5828 10.7681 16.8111 10.7681 17.0491C10.7681 17.287 10.8626 17.5153 11.0309 17.6836C11.1992 17.8518 11.4274 17.9464 11.6654 17.9464ZM11.6654 22.433H16.152C16.39 22.433 16.6182 22.3384 16.7865 22.1702C16.9548 22.0019 17.0493 21.7736 17.0493 21.5357C17.0493 21.2977 16.9548 21.0694 16.7865 20.9012C16.6182 20.7329 16.39 20.6383 16.152 20.6383H11.6654C11.4274 20.6383 11.1992 20.7329 11.0309 20.9012C10.8626 21.0694 10.7681 21.2977 10.7681 21.5357C10.7681 21.7736 10.8626 22.0019 11.0309 22.1702C11.1992 22.3384 11.4274 22.433 11.6654 22.433ZM15.2547 10.7678C15.0167 10.7678 14.7884 10.8624 14.6202 11.0306C14.4519 11.1989 14.3573 11.4272 14.3573 11.6651C14.3573 11.9031 14.4519 12.1314 14.6202 12.2996C14.7884 12.4679 15.0167 12.5625 15.2547 12.5625C15.2547 12.8004 15.3492 13.0287 15.5175 13.197C15.6858 13.3652 15.914 13.4598 16.152 13.4598C16.39 13.4598 16.6182 13.3652 16.7865 13.197C16.9548 13.0287 17.0493 12.8004 17.0493 12.5625V12.313C17.3212 12.1567 17.5473 11.9317 17.7048 11.6605C17.8623 11.3893 17.9457 11.0814 17.9466 10.7678V9.8705C17.9466 9.39453 17.7576 8.93805 17.421 8.60149C17.0844 8.26493 16.628 8.07585 16.152 8.07585V7.17853H17.0493C17.2873 7.17853 17.5155 7.08399 17.6838 6.91571C17.8521 6.74743 17.9466 6.5192 17.9466 6.28121C17.9466 6.04323 17.8521 5.81499 17.6838 5.64671C17.5155 5.47843 17.2873 5.38389 17.0493 5.38389C17.0493 5.14591 16.9548 4.91767 16.7865 4.74939C16.6182 4.58111 16.39 4.48657 16.152 4.48657C15.914 4.48657 15.6858 4.58111 15.5175 4.74939C15.3492 4.91767 15.2547 5.14591 15.2547 5.38389V5.63335C14.9827 5.78961 14.7567 6.01463 14.5992 6.28584C14.4417 6.55705 14.3583 6.86491 14.3573 7.17853V8.07585C14.3573 8.55182 14.5464 9.0083 14.883 9.34486C15.2195 9.68142 15.676 9.8705 16.152 9.8705V10.7678H15.2547Z" fill="#A0C4FF"/>
</svg>
