<svg width="33" height="33" viewBox="0 0 33 33" fill="none" xmlns="http://www.w3.org/2000/svg">
<path d="M19.8552 8.567C19.5757 8.85224 19.4191 9.23573 19.4191 9.63514C19.4191 10.0346 19.5757 10.418 19.8552 10.7033L22.2967 13.1448C22.5819 13.4243 22.9654 13.5809 23.3649 13.5809C23.7643 13.5809 24.1478 13.4243 24.433 13.1448L30.1857 7.39205C30.953 9.08763 31.1853 10.9768 30.8517 12.8077C30.5181 14.6387 29.6344 16.3245 28.3184 17.6405C27.0024 18.9565 25.3166 19.8402 23.4856 20.1738C21.6547 20.5074 19.7655 20.2751 18.0699 19.5078L7.52583 30.0519C6.91879 30.659 6.09545 31 5.23696 31C4.37846 31 3.55513 30.659 2.94808 30.0519C2.34104 29.4449 2 28.6215 2 27.763C2 26.9045 2.34104 26.0812 2.94808 25.4742L13.4922 14.9301C12.7249 13.2345 12.4926 11.3453 12.8262 9.51437C13.1598 7.68341 14.0435 5.99759 15.3595 4.68159C16.6755 3.36559 18.3613 2.4819 20.1923 2.1483C22.0232 1.81469 23.9124 2.04701 25.608 2.81429L19.8705 8.55174L19.8552 8.567Z" stroke="#A0C4FF" stroke-width="2.4" stroke-linecap="round" stroke-linejoin="round"/>
</svg>
