<svg width="33" height="33" viewBox="0 0 33 33" fill="none" xmlns="http://www.w3.org/2000/svg">
<path d="M1.31998 22.4528C0.927085 21.3003 3.99002 18.6143 3.99002 18.499V22.4528L4.25195 26.1055C3.20423 25.3371 1.6343 23.3748 1.31998 22.4528Z" fill="#FF9B80"/>
<path d="M27.4279 16.4784C27.8082 15.2423 25.2094 11.6847 23.8624 10.0604C23.1097 9.50579 20.8198 8.27767 17.6821 7.80227C14.5445 7.32687 12.4527 7.32697 10.4323 8.3966C5.44054 12.4375 4.96516 15.5275 4.01434 17.4291C3.06351 19.3307 3.66818 25.7083 4.01434 26.343C4.72744 27.6504 6.62905 27.878 6.15365 28.71C6.14274 28.7291 6.13208 28.747 6.1217 28.7637C5.80066 29.2813 5.73399 28.7043 6.1217 28.7637C6.26792 28.7861 6.47878 28.899 6.76499 29.1954C7.21832 29.6647 7.39766 29.5441 7.44477 29.3307L9.07499 30.525C10.7864 31.761 13.3768 32.9507 16.665 32.4357C15.9856 32.2786 15.382 32.1435 14.8478 32.0282C18.0559 32.6819 26.8423 30.3806 26.2533 29.4382C25.659 28.4874 29.1057 25.0408 29.6999 24.09C30.2942 23.1392 26.9525 19.925 26.596 19.8062C26.2394 19.6873 26.9525 18.0234 27.4279 16.4784Z" fill="#FFB699"/>
<path d="M21.6045 15.7653C20.7329 17.0727 18.9185 18.7604 18.6332 15.0522" stroke="#5A2618" stroke-width="0.75"/>
<path d="M9.83789 13.6259C8.76824 14.5767 6.81909 15.7653 7.57973 12.9128" stroke="#5B2813" stroke-width="0.75"/>
<path d="M26.5963 10.4171C26.8815 10.9876 28.379 12.9526 29.0921 13.8638C29.3694 14.0223 29.6151 14.6482 28.379 15.8843C26.834 17.4293 23.9816 16.5974 23.9816 16.4785C23.9816 16.3597 23.1496 15.1711 22.7931 13.1507C22.4365 11.1302 26.2397 9.70402 26.5963 10.4171Z" fill="#FF8B6F"/>
<path d="M7.76988 8.38992C8.88738 8.27776 9.95703 7.74521 10.8173 7.04586C10.9716 6.87296 12.0963 6.85161 12.4136 7.74521C12.9704 9.31307 12.4136 9.82286 11.9775 10.2983C11.911 10.3707 10.696 11.0985 9.00627 11.1302C7.31651 11.1619 7.13383 8.45376 7.76988 8.38992Z" fill="#FE8E6F"/>
<path d="M8.88725 16.9538C8.88725 18.5948 10.9217 20.1628 13.2847 20.1628C16.0183 20.1628 17.4445 19.6645 17.4445 18.0235C17.8011 15.7653 15.2912 13.7449 12.9282 13.7449C10.5651 13.7449 8.88725 15.3129 8.88725 16.9538Z" fill="#FF8B6F"/>
<circle r="1.18851" transform="matrix(-1 0 0 1 14.4731 17.5481)" fill="#FF5621"/>
<circle r="0.831954" transform="matrix(-1 0 0 1 11.2642 16.4784)" fill="#FF5621"/>
<path d="M24.9321 7.32696C24.6152 8.19853 23.9576 9.96545 23.8625 10.0605C22.5551 9.22857 19.2273 7.80236 16.6126 7.68351L18.0388 5.0688L19.7027 6.13846L21.842 4.94995L23.0305 7.44581L24.9321 7.32696Z" fill="#E6EB10"/>
<path d="M25.1699 27.6503C25.1699 27.9355 25.6453 28.403 25.883 28.6011C26.0019 28.7992 26.1683 29.2191 25.883 29.3142C25.5265 29.4331 24.5757 28.4823 24.2191 28.0069C23.8626 27.5315 24.338 26.1053 24.2191 25.511C24.124 25.0356 23.5456 24.7583 23.2683 24.679V23.0151L25.4076 24.679C25.5265 24.8771 25.6929 25.3684 25.4076 25.7487C25.0511 26.2241 25.1699 27.2938 25.1699 27.6503Z" fill="#F48A69"/>
<path d="M0 16.5C0 25.6127 7.3873 33 16.5 33C25.6127 33 33 25.6127 33 16.5C33 7.3873 25.6127 0 16.5 0C7.3873 0 0 7.3873 0 16.5ZM31.2455 16.5C31.2455 24.6437 24.6437 31.2455 16.5 31.2455C8.35629 31.2455 1.7545 24.6437 1.7545 16.5C1.7545 8.35629 8.35629 1.7545 16.5 1.7545C24.6437 1.7545 31.2455 8.35629 31.2455 16.5Z" fill="#434141"/>
</svg>
