<svg width="31" height="31" viewBox="0 0 31 31" fill="none" xmlns="http://www.w3.org/2000/svg">
<path d="M0.218945 18.5532C-0.125936 18.9845 -0.0558267 19.6138 0.375538 19.9587C0.806903 20.3036 1.43617 20.2335 1.78106 19.8021L0.218945 18.5532ZM29.2189 19.8021C29.5638 20.2335 30.1931 20.3036 30.6245 19.9587C31.0558 19.6138 31.1259 18.9845 30.7811 18.5532L29.2189 19.8021ZM14.7189 2.01845L13.9379 1.39399L14.7189 2.01845ZM16.2811 2.01845L17.0621 1.39399L16.2811 2.01845ZM1.78106 19.8021L15.5 2.64291L13.9379 1.39399L0.218945 18.5532L1.78106 19.8021ZM15.5 2.64291L29.2189 19.8021L30.7811 18.5532L17.0621 1.39399L15.5 2.64291ZM15.5 2.64291V2.64291L17.0621 1.39399C16.2615 0.392554 14.7385 0.392556 13.9379 1.39399L15.5 2.64291Z" fill="#A0C4FF"/>
<path d="M5.46158 13.6104L4.6792 12.9875C4.56577 13.13 4.4934 13.3008 4.46992 13.4814L5.46158 13.6104ZM25.5385 13.6104L26.5302 13.4814C26.5067 13.3008 26.4343 13.13 26.3209 12.9875L25.5385 13.6104ZM4.69789 19.4848L3.70623 19.3559L4.69789 19.4848ZM26.3022 19.4848L25.3105 19.6137L26.3022 19.4848ZM26.2682 24.8908L25.2782 24.7494L26.2682 24.8908ZM16.2824 1.98282L17.0648 1.36001L16.2824 1.98282ZM25.7838 28.2827L24.7938 28.1413L25.7838 28.2827ZM23.8038 28.9999H7.19623V30.9999H23.8038V28.9999ZM6.24395 14.2332L15.5 2.60563L13.9353 1.36001L4.6792 12.9875L6.24395 14.2332ZM15.5 2.60563L24.7561 14.2332L26.3209 12.9875L17.0648 1.36001L15.5 2.60563ZM24.5468 13.7393L25.3105 19.6137L27.2938 19.3559L26.5302 13.4814L24.5468 13.7393ZM25.2782 24.7494L24.7938 28.1413L26.7737 28.4241L27.2581 25.0322L25.2782 24.7494ZM6.20628 28.1413L5.72185 24.7494L3.74195 25.0322L4.22637 28.4241L6.20628 28.1413ZM5.68955 19.6137L6.45323 13.7393L4.46992 13.4814L3.70623 19.3559L5.68955 19.6137ZM5.72185 24.7494C5.4787 23.0469 5.46783 21.3192 5.68955 19.6137L3.70623 19.3559C3.46118 21.2409 3.47319 23.1504 3.74195 25.0322L5.72185 24.7494ZM25.3105 19.6137C25.5322 21.3192 25.5214 23.0469 25.2782 24.7494L27.2581 25.0322C27.5269 23.1504 27.5389 21.2409 27.2938 19.3559L25.3105 19.6137ZM15.5 2.60563L17.0648 1.36001C16.2641 0.354169 14.736 0.354169 13.9353 1.36001L15.5 2.60563ZM7.19623 28.9999C6.69857 28.9999 6.27664 28.634 6.20628 28.1413L4.22637 28.4241C4.43745 29.9021 5.70324 30.9999 7.19623 30.9999V28.9999ZM23.8038 30.9999C25.2968 30.9999 26.5626 29.9021 26.7737 28.4241L24.7938 28.1413C24.7234 28.634 24.3015 28.9999 23.8038 28.9999V30.9999Z" fill="#A0C4FF"/>
<path d="M15.4997 18.224C17.6364 18.224 19.3686 20.0917 19.3686 22.3956V30H11.6309V22.3956C11.6309 20.0917 13.363 18.224 15.4997 18.224Z" stroke="#A0C4FF" stroke-width="2" stroke-linecap="round" stroke-linejoin="round"/>
</svg>
