<svg width="70" height="70" viewBox="0 0 70 70" fill="none" xmlns="http://www.w3.org/2000/svg">
<circle cx="35" cy="35" r="34" stroke="#A0C4FF" stroke-width="2"/>
<path d="M27.6502 44.2825C28.5574 44.0173 29.3909 43.5267 30.0774 42.8393L34.7989 38.1122L39.5392 42.8581C40.298 43.6177 41.236 44.1371 42.2549 44.3774L37.7356 48.902C36.2288 50.366 33.7757 50.366 32.2689 48.9019L27.6502 44.2825ZM42.2592 25.6638C41.2387 25.9038 40.299 26.4235 39.5392 27.1842L34.7989 31.93L30.0877 27.2133C29.3921 26.4771 28.5553 26 27.6596 25.7483L32.2672 21.1333C32.2673 21.1332 32.2674 21.1331 32.2675 21.133C33.7802 19.6216 36.2253 19.6234 37.7301 21.1322L37.7308 21.1329L42.2592 25.6638ZM34.742 31.9806C34.742 31.9806 34.7424 31.9804 34.7433 31.9801L34.742 31.9806ZM32.4611 34.4183L32.4847 34.4419L32.5097 34.4638C32.7434 34.6685 33.0152 34.8586 33.3157 35.0126C33.004 35.1652 32.714 35.3693 32.4603 35.6248C32.4597 35.6254 32.4592 35.6259 32.4586 35.6265L27.676 40.4084C27.1727 40.8694 26.6174 41.095 26.0468 41.095H24.4698L21.1317 37.7541L21.1313 37.7537C19.6229 36.2458 19.6229 33.7965 21.1313 32.2885L21.1324 32.2875L24.4703 28.941H26.0468C26.6173 28.941 27.1725 29.1666 27.6758 29.6274L32.4611 34.4183ZM37.1367 35.6177C36.8841 35.3648 36.5956 35.1626 36.2855 35.0111C36.5846 34.8572 36.8555 34.6676 37.0882 34.4638L37.1132 34.4419L37.1367 34.4183L41.952 29.5974C41.9525 29.5969 41.9531 29.5963 41.9536 29.5958C42.3813 29.1729 42.9731 28.9285 43.5699 28.9285H45.5147L48.8703 32.288C50.3766 33.7961 50.3766 36.2462 48.8703 37.7543L45.5147 41.1138H43.5699C42.9728 41.1138 42.3822 40.8693 41.9556 40.4422L37.1367 35.6177Z" stroke="#A0C4FF" stroke-width="2"/>
</svg>
